# xmcd
#
# Track frame offsets:
#	150
#	11640
#	22133
#	32953
#	44329
#	56942
#	67455
#	76816
#	86625
#	97374
#	111457
#	122703
#	132747
#	143620
#	155723
#	167872
#	179224
#	193378
#	202662
#	212827
#	221625
#	232540
#	241598
#	250515
#
# Disc length: 3468 seconds
#
# Revision: 2
# Processed by: cddbd v1.5.2PL0 Copyright (c) Steve Scherf et al.
# Submitted via: audiograbber 1.83.01
#
DISCID=700d8a18
DTITLE=Bobby Lord - Everybody's rockin' but me
DYEAR=2011
DGENRE=Rockabilly - Rock and Roll
TTITLE0=So Doggone Lonesome
TTITLE1=No More, No More, No More
TTITLE2=Hawk-Eye
TTITLE3=I Can´t Do Without You Anymore
TTITLE4=Beautiful Baby
TTITLE5=Run Honey Run
TTITLE6=You Robber You
TTITLE7=Everybody´s Rockin´ But Me
TTITLE8=Pie Peachie Pie Pie
TTITLE9=The Fire Of Love
TTITLE10=Ain´t Cha´Ever Gonna?
TTITLE11=Sittin´Home Prayin For Rain
TTITLE12=What A Thrill
TTITLE13=Swamp Fox
TTITLE14=Too Many Miles  (Down The Road)
TTITLE15=I´d Rather Be Blue
TTITLE16=Why Should I Cry
TTITLE17=High Voltage
TTITLE18=Just Wonderful
TTITLE19=Am I A Fool
TTITLE20=I Know It Was You
TTITLE21=Party Pooper
TTITLE22=Sack
TTITLE23=The Fire Of Love
EXTD=Series: Gonna shake this shack tonight
EXTT0=
EXTT1=
EXTT2=
EXTT3=
EXTT4=
EXTT5=
EXTT6=
EXTT7=
EXTT8=
EXTT9=
EXTT10=
EXTT11=
EXTT12=
EXTT13=
EXTT14=
EXTT15=
EXTT16=
EXTT17=
EXTT18=
EXTT19=
EXTT20=
EXTT21=
EXTT22=
EXTT23=
PLAYORDER=
